<svg width="200" height="30" xmlns="http://www.w3.org/2000/svg" viewBox="0 0 200 30">
  <defs>
    <!-- Rainbow gradient for .AI -->
    <linearGradient id="rainbow" x1="0%" y1="0%" x2="100%" y2="0%">
      <stop offset="0%" style="stop-color:#ff0000"/>
      <stop offset="14%" style="stop-color:#ff8800"/>
      <stop offset="28%" style="stop-color:#ffff00"/>
      <stop offset="42%" style="stop-color:#00ff00"/>
      <stop offset="56%" style="stop-color:#00ffff"/>
      <stop offset="70%" style="stop-color:#0088ff"/>
      <stop offset="84%" style="stop-color:#8800ff"/>
      <stop offset="100%" style="stop-color:#ff0088"/>
      <animate attributeName="x1" values="0%;100%;0%" dur="10s" repeatCount="indefinite"/>
      <animate attributeName="x2" values="100%;200%;100%" dur="10s" repeatCount="indefinite"/>
    </linearGradient>

    <!-- Glitch effect -->
    <filter id="glitch">
      <feTurbulence type="turbulence" baseFrequency="0.01" numOctaves="1" seed="2">
        <animate attributeName="seed" values="2;100;2" dur="0.05s" begin="5s;10s;15s" />
      </feTurbulence>
      <feDisplacementMap in="SourceGraphic" scale="0">
        <animate attributeName="scale" values="0;2;0" dur="0.05s" begin="5s;10s;15s" />
      </feDisplacementMap>
    </filter>
  </defs>

  <!-- ASCII blocks drawn as rectangles to ensure they render properly -->
  <g fill="white" filter="url(#glitch)">
    <!-- Line 1: █▄ █ █▀▀ █ █ █ ▀█▀ █ █ -->
    <!-- █▄ -->
    <rect x="4" y="3" width="5" height="7"/>
    <rect x="9" y="7" width="5" height="3"/>
    <!-- █ -->
    <rect x="18" y="3" width="5" height="7"/>
    <!-- █▀▀ -->
    <rect x="27" y="3" width="5" height="7"/>
    <rect x="32" y="3" width="10" height="2"/>
    <!-- █ █ █ -->
    <rect x="46" y="3" width="5" height="7"/>
    <rect x="55" y="3" width="5" height="7"/>
    <rect x="64" y="3" width="5" height="7"/>
    <!-- ▀█▀ -->
    <rect x="73" y="3" width="10" height="2"/>
    <rect x="76" y="3" width="4" height="7"/>
    <!-- █ █ -->
    <rect x="87" y="3" width="5" height="7"/>
    <rect x="96" y="3" width="5" height="7"/>

    <!-- Line 2: █ ▀█ █▀▀ ▀▄▀▄▀  █  █▀█ -->
    <!-- █ ▀█ -->
    <rect x="4" y="12" width="5" height="7"/>
    <rect x="14" y="12" width="10" height="2"/>
    <rect x="18" y="12" width="5" height="7"/>
    <!-- █▀▀ -->
    <rect x="27" y="12" width="5" height="7"/>
    <rect x="32" y="12" width="10" height="2"/>
    <!-- ▀▄▀▄▀ (simplified as blocks) -->
    <rect x="46" y="12" width="3" height="3"/>
    <rect x="50" y="15" width="3" height="3"/>
    <rect x="55" y="12" width="3" height="3"/>
    <rect x="59" y="15" width="3" height="3"/>
    <rect x="64" y="12" width="3" height="3"/>
    <!-- █ -->
    <rect x="73" y="12" width="5" height="7"/>
    <!-- █▀█ -->
    <rect x="87" y="12" width="5" height="7"/>
    <rect x="92" y="12" width="10" height="2"/>
    <rect x="96" y="12" width="5" height="7"/>

    <!-- Line 3: █  █ █▄▄  ▀ ▀   █  █ █ -->
    <!-- █  █ -->
    <rect x="4" y="21" width="5" height="7"/>
    <rect x="18" y="21" width="5" height="7"/>
    <!-- █▄▄ -->
    <rect x="27" y="21" width="5" height="7"/>
    <rect x="32" y="26" width="10" height="2"/>
    <!-- ▀ ▀ -->
    <rect x="47" y="21" width="3" height="3"/>
    <rect x="56" y="21" width="3" height="3"/>
    <!-- █ -->
    <rect x="73" y="21" width="5" height="7"/>
    <!-- █ █ -->
    <rect x="87" y="21" width="5" height="7"/>
    <rect x="96" y="21" width="5" height="7"/>
  </g>

  <!-- .AI part in rainbow gradient -->
  <g fill="url(#rainbow)" opacity="0.9">
    <!-- ▄▀█ █ -->
    <rect x="110" y="8" width="8" height="2"/>
    <rect x="110" y="5" width="2" height="3"/>
    <rect x="115" y="3" width="3" height="5"/>
    <rect x="118" y="3" width="8" height="2"/>
    <rect x="130" y="3" width="5" height="7"/>

    <!-- █▀█ █ -->
    <rect x="110" y="12" width="5" height="7"/>
    <rect x="115" y="12" width="8" height="2"/>
    <rect x="118" y="12" width="5" height="7"/>
    <rect x="130" y="12" width="5" height="7"/>

    <!-- ° -->
    <circle cx="112" cy="24" r="1.5" fill="url(#rainbow)"/>
  </g>
</svg>