<?xml version="1.0" encoding="UTF-8"?>
<svg id="Layer_1" data-name="Layer 1" xmlns="http://www.w3.org/2000/svg" viewBox="0 0 195.17 43.57">
  <defs>
    <style>
      .cls-1 {
        fill: #fff;
      }
      .cls-2 {
        fill: #999;
      }
    </style>
  </defs>
  <polygon class="cls-1" points="20.35 14.4 14.17 14.4 14.17 7.38 7.38 7.38 7.38 0 0 0 0 14.4 0 14.77 0 28.8 0 29.17 0 43.57 7.38 43.57 7.38 29.17 7.38 28.8 7.38 14.77 13.57 14.77 13.57 21.78 20.35 21.78 20.35 28.8 20.35 29.17 20.35 43.57 27.74 43.57 27.74 29.17 27.74 28.8 27.74 14.77 27.74 14.4 27.74 0 20.35 0 20.35 14.4"/>
  <polygon class="cls-1" points="47.49 0 41.31 0 40.71 0 33.92 0 33.92 14.4 33.92 14.77 33.92 28.8 33.92 29.17 33.92 43.57 40.71 43.57 41.31 43.57 47.49 43.57 48.09 43.57 54.88 43.57 54.88 36.18 48.09 36.18 47.49 36.18 41.31 36.18 41.31 29.17 41.31 28.8 41.31 21.78 47.49 21.78 48.09 21.78 54.88 21.78 54.88 14.4 48.09 14.4 47.49 14.4 41.31 14.4 41.31 7.38 47.49 7.38 48.09 7.38 54.88 7.38 54.88 0 48.09 0 47.49 0"/>
  <polygon class="cls-1" points="88.2 14.4 88.2 14.77 88.2 21.78 82.01 21.78 82.01 14.77 82.01 14.4 82.01 0 74.63 0 74.63 14.4 74.63 14.77 74.63 21.78 68.44 21.78 68.44 14.77 68.44 14.4 68.44 0 61.06 0 61.06 14.4 61.06 14.77 61.06 21.78 67.84 21.78 67.84 28.8 67.84 29.17 67.84 36.18 75.23 36.18 75.23 29.17 75.23 28.8 75.23 21.78 81.41 21.78 81.41 28.8 81.41 29.17 81.41 36.18 88.8 36.18 88.8 29.17 88.8 28.8 88.8 21.78 95.58 21.78 95.58 14.77 95.58 14.4 95.58 0 88.2 0 88.2 14.4"/>
  <polygon class="cls-1" points="115.34 0 109.15 0 108.55 0 101.77 0 101.77 7.38 108.55 7.38 108.55 14.4 108.55 14.77 108.55 28.8 108.55 29.17 108.55 43.57 115.94 43.57 115.94 29.17 115.94 28.8 115.94 14.77 115.94 14.4 115.94 7.38 122.72 7.38 122.72 0 115.94 0 115.34 0"/>
  <polygon class="cls-1" points="142.47 14.4 136.29 14.4 136.29 0 128.9 0 128.9 14.4 128.9 14.77 128.9 28.8 128.9 29.17 128.9 43.57 136.29 43.57 136.29 29.17 136.29 28.8 136.29 21.78 142.47 21.78 142.47 28.8 142.47 29.17 142.47 43.57 149.86 43.57 149.86 29.17 149.86 28.8 149.86 14.77 149.86 14.4 149.86 0 142.47 0 142.47 14.4"/>
  <!-- .AI part - static gray -->
  <g class="cls-2">
    <path d="M174.21,0h-6.78v7.38h-6.78v21.78h7.38v-7.38h6.18v7.38h7.38V0h-7.38ZM168.03,7.38h6.18v7.02h-6.18v-7.02Z"/>
    <polygon points="187.78 0 187.78 14.4 187.78 14.77 187.78 29.17 195.17 29.17 195.17 14.77 195.17 14.4 195.17 0 187.78 0"/>
    <path d="M157.98,30.78c-.34-.16-.69-.24-1.05-.24s-.71.08-1.05.24-.61.4-.83.71c-.22.31-.32.68-.32,1.12s.11.82.32,1.13.49.55.83.72c.34.17.69.25,1.05.25s.71-.08,1.05-.25c.34-.17.61-.41.83-.72.22-.31.32-.69.32-1.13s-.11-.81-.32-1.12c-.22-.31-.49-.55-.83-.71Z"/>
  </g>
</svg>